<?xml version="1.0" encoding="utf-8"?>
<!-- Generator: Adobe Illustrator 19.1.0, SVG Export Plug-In . SVG Version: 6.00 Build 0)  -->
<svg version="1.1" id="Layer_1" xmlns="http://www.w3.org/2000/svg" xmlns:xlink="http://www.w3.org/1999/xlink" x="0px" y="0px"
	 width="354px" height="264px" viewBox="0 0 354 264" style="enable-background:new 0 0 354 264;" xml:space="preserve">
<style type="text/css">
	.st0{fill:none;}
	.st1{fill:#E07D10;}
	.st2{font-family:'KaTeX_Main-Regular';}
	.st3{font-size:24px;}
	.st4{font-family:'KaTeX_Main-Italic';}
	.st5{font-family:'MyriadPro-Regular';}
	.st6{fill:none;stroke:#ED5FA6;stroke-width:7;stroke-linecap:round;stroke-linejoin:round;stroke-miterlimit:10;}
	.st7{fill:none;stroke:#AA87FF;stroke-width:7;stroke-linecap:round;stroke-linejoin:round;stroke-miterlimit:10;}
	.st8{fill:none;stroke:#FF9C39;stroke-width:7;stroke-linecap:round;stroke-linejoin:round;stroke-miterlimit:10;}
	.st9{fill:#8AF281;stroke:#8AF281;stroke-linecap:round;stroke-linejoin:round;stroke-miterlimit:10;}
	.st10{fill:#FF9C39;stroke:#E07D10;stroke-linecap:round;stroke-linejoin:round;stroke-miterlimit:10;}
	.st11{fill:none;stroke:#8AF281;stroke-width:7;stroke-linecap:round;stroke-linejoin:round;stroke-miterlimit:10;}
	.st12{fill:#ED5FA6;stroke:#ED5FA6;stroke-width:7;stroke-linecap:round;stroke-linejoin:round;stroke-miterlimit:10;}
	.st13{fill:none;stroke:#1FAB54;stroke-width:7;stroke-linecap:round;stroke-linejoin:round;stroke-miterlimit:10;}
	.st14{fill:none;stroke:#1FAB54;stroke-width:6;stroke-linecap:round;stroke-linejoin:round;stroke-miterlimit:10;}
	.st15{fill:#FF9C39;stroke:#FF9C39;stroke-width:5;stroke-linecap:round;stroke-miterlimit:10;}
	.st16{fill:none;stroke:#1FAB54;stroke-width:4;stroke-miterlimit:10;}
	.st17{fill:none;stroke:#3C91E5;stroke-width:4;stroke-miterlimit:10;}
	.st18{fill:#FFFFFF;}
	.st19{fill:none;stroke:#11ACCD;stroke-width:5;stroke-linecap:round;stroke-miterlimit:10;}
	.st20{fill:#11ACCD;}
	.st21{fill:none;stroke:#FF9C39;stroke-width:4;stroke-miterlimit:10;}
	.st22{fill:none;stroke:#63D9EA;stroke-width:7;stroke-linecap:round;stroke-miterlimit:10;}
	.st23{fill:none;stroke:#63D9EA;stroke-width:8;stroke-linecap:round;stroke-miterlimit:10;}
	.st24{fill:none;stroke:#000000;stroke-linecap:round;stroke-linejoin:round;stroke-miterlimit:10;}
	.st25{fill:none;stroke:#000000;stroke-width:1.5;stroke-linecap:round;stroke-linejoin:round;stroke-miterlimit:10;}
	.st26{fill:none;stroke:#000000;stroke-linecap:round;stroke-miterlimit:10;}
	.st27{fill:none;stroke:#000000;stroke-width:1.5;stroke-linecap:round;stroke-miterlimit:10;}
	.st28{fill:none;stroke:#000000;stroke-width:2;stroke-linecap:round;stroke-linejoin:round;stroke-miterlimit:10;}
	.st29{fill:none;stroke:#000000;stroke-width:1.5;stroke-miterlimit:10;}
	.st30{fill:none;stroke:#000000;stroke-miterlimit:10;}
	.st31{fill:none;stroke:#000000;stroke-width:2;stroke-miterlimit:10;}
	.st32{fill:none;stroke:#000000;stroke-width:2;stroke-linecap:round;stroke-miterlimit:10;}
	.st33{fill:none;stroke:#000000;stroke-linecap:round;stroke-linejoin:round;}
	.st34{stroke:#000000;stroke-linecap:round;stroke-linejoin:round;stroke-miterlimit:10;}
	.st35{fill:none;stroke:#000000;stroke-width:1.5;stroke-linejoin:round;stroke-miterlimit:10;}
	.st36{fill:none;stroke:#000000;stroke-linejoin:round;stroke-miterlimit:10;}
	.st37{clip-path:url(#SVGID_2_);fill:none;stroke:#000000;stroke-linejoin:round;stroke-miterlimit:10;}
	.st38{clip-path:url(#SVGID_2_);fill:none;stroke:#ADADEB;stroke-linejoin:round;stroke-miterlimit:10;}
	.st39{clip-path:url(#SVGID_2_);}
	.st40{stroke:#000000;stroke-linejoin:round;stroke-miterlimit:10;}
	.st41{stroke:#000000;stroke-width:3;stroke-linejoin:round;stroke-miterlimit:10;}
	.st42{fill:none;stroke:#E84D39;stroke-width:3;stroke-linecap:round;stroke-linejoin:round;}
	.st43{fill:#E84D39;}
	.st44{fill:none;stroke:#11ACCD;stroke-width:2;stroke-linecap:round;stroke-linejoin:round;}
	.st45{fill:none;stroke:#F9685D;stroke-width:2;stroke-linecap:round;stroke-linejoin:round;}
	.st46{fill:#F9685D;}
	.st47{fill:#11ACCD;stroke:#000000;stroke-linecap:round;stroke-miterlimit:10;}
	.st48{stroke:#000000;stroke-linecap:round;stroke-miterlimit:10;}
	.st49{fill:#FFFF00;stroke:#000000;stroke-linecap:round;stroke-miterlimit:10;}
	.st50{fill:#F9685D;stroke:#000000;stroke-linecap:round;stroke-miterlimit:10;}
	.st51{fill:#D6D8DA;stroke:#000000;stroke-linecap:round;stroke-miterlimit:10;}
	.st52{fill:none;stroke:#FF9C39;stroke-width:5;stroke-linecap:round;stroke-linejoin:round;stroke-miterlimit:10;}
	.st53{fill:#FF9C39;}
	.st54{fill:#AA87FF;}
	.st55{fill:#ED5FA6;}
	.st56{fill:#1FAB54;}
	.st57{fill:none;stroke:#000000;stroke-width:4;stroke-linecap:round;stroke-linejoin:round;stroke-miterlimit:10;}
	.st58{stroke:#000000;stroke-miterlimit:10;}
	.st59{stroke:#000000;stroke-width:2;stroke-linecap:round;stroke-linejoin:round;stroke-miterlimit:10;}
	.st60{fill:none;stroke:#000000;stroke-width:3;stroke-linecap:round;stroke-linejoin:round;stroke-miterlimit:10;}
	.st61{fill:none;stroke:#000000;stroke-linejoin:round;}
	.st62{fill:none;stroke:#000000;stroke-width:7;stroke-linecap:round;stroke-linejoin:round;stroke-miterlimit:10;}
	.st63{fill:none;stroke:#11ACCD;stroke-width:3;stroke-linecap:round;stroke-linejoin:round;}
	.st64{fill:none;stroke:#11ACCD;stroke-width:2;stroke-linecap:round;stroke-miterlimit:10;}
	.st65{fill:none;stroke:#E07D10;stroke-width:2;stroke-linecap:round;stroke-miterlimit:10;}
	.st66{fill:none;stroke:#11ACCD;stroke-width:2;stroke-miterlimit:10;}
	.st67{font-family:'Verdana';}
	.st68{font-size:18px;}
	.st69{letter-spacing:1;}
	.st70{fill:none;stroke:#000000;stroke-width:3;stroke-linecap:square;stroke-miterlimit:10;}
	.st71{fill:#BE2612;}
	.st72{fill:none;stroke:#BE2612;stroke-width:2;stroke-linecap:round;stroke-linejoin:round;}
	.st73{fill:none;stroke:#21242C;stroke-linecap:round;stroke-linejoin:round;stroke-miterlimit:10;}
	.st74{fill:none;stroke:#11ACCD;stroke-width:3;stroke-linecap:round;stroke-miterlimit:10;}
	.st75{fill:#FFFFFF;stroke:#000000;stroke-miterlimit:10;}
</style>
<text transform="matrix(1 0 0 1 130.7671 246)" class="st1 st2 st3">+</text>
<text transform="matrix(1 0 0 1 149.4389 246)" class="st1 st4 st3">     </text>
<text transform="matrix(1 0 0 1 179.4389 246)" class="st1 st2 st3"> </text>
<text transform="matrix(0.583 0 0 0.583 185.4389 253.9922)" class="st1 st2 st3">  </text>
<text transform="matrix(0.583 0 0 0.583 192.435 253.9922)" class="st1 st4 st3">   </text>
<text transform="matrix(1 0 0 1 202.9292 246)" class="st1 st5 st3">−</text>
<g>
	<circle class="st31" cx="84" cy="138" r="18"/>
	<polyline class="st26" points="90,66 84,66 84,96 84,120 	"/>
	<polyline class="st24" points="126,204 84,204 84,180 84,156 	"/>
	<line class="st29" x1="84" y1="124.5" x2="84" y2="136.5"/>
	<line class="st29" x1="78" y1="130.5" x2="90" y2="130.5"/>
	<line class="st29" x1="78" y1="148.5" x2="90" y2="148.5"/>
</g>
<g>
	<circle cx="84" cy="204" r="3"/>
	<rect x="78" y="198" class="st0" width="12" height="12"/>
</g>
<g>
	<g>
		<path class="st65" d="M60,174c-3.7-7-6.2-20.5-6.2-36c0-11.4,1.4-21.8,3.6-29.3"/>
		<g>
			<path class="st1" d="M60,102c0,3.6,0.5,8.4,1.7,11.6l-4.6-3.9l-6.1-0.1C54.1,107.9,57.6,104.7,60,102z"/>
		</g>
	</g>
</g>
<g>
	<g>
		<path class="st65" d="M296.6,167.3c2.2-7.5,3.6-17.8,3.6-29.3c0-15.5-2.5-29-6.2-36"/>
		<g>
			<path class="st1" d="M294,174c2.4-2.7,5.9-5.9,9-7.6l-6.1-0.1l-4.6-3.9C293.5,165.6,294,170.4,294,174z"/>
		</g>
	</g>
</g>
<g>
	<g>
		<path class="st65" d="M155.3,45.2c-6.8-2.1-16.1-3.4-26.3-3.4c-14.2,0-26.6,2.5-33,6.2"/>
		<g>
			<path class="st1" d="M162,48c-2.7-2.4-5.8-6-7.4-9.1l-0.2,6.1l-4,4.5C153.6,48.3,158.4,47.9,162,48z"/>
		</g>
	</g>
</g>
<g>
	<g>
		<path class="st65" d="M216,222c-7,3.7-20.5,6.2-36,6.2c-11.4,0-21.8-1.4-29.3-3.6"/>
		<g>
			<path class="st1" d="M144,222c3.6,0,8.4-0.5,11.6-1.7l-3.9,4.6l-0.1,6.1C149.9,227.9,146.7,224.4,144,222z"/>
		</g>
	</g>
</g>
<g>
	<g>
		<path class="st65" d="M251.3,45.2c-6.8-2.1-16.1-3.4-26.3-3.4c-14.2,0-26.6,2.5-33,6.2"/>
		<g>
			<path class="st1" d="M258,48c-2.7-2.4-5.8-6-7.4-9.1l-0.2,6.1l-4,4.5C249.6,48.3,254.4,47.9,258,48z"/>
		</g>
	</g>
</g>
<g>
	<line class="st24" x1="155.4" y1="66" x2="174" y2="66"/>
	<polyline class="st28" points="108.6,66 112.5,57 120.3,75 128.1,57 135.9,75 143.7,57 151.5,75 155.4,66 	"/>
	<line class="st24" x1="90" y1="66" x2="108.6" y2="66"/>
	<rect x="90" y="54" class="st0" width="84" height="24"/>
</g>
<g>
	<line class="st24" x1="251.4" y1="66" x2="270" y2="66"/>
	<polyline class="st28" points="204.6,66 208.5,57 216.3,75 224.1,57 231.9,75 239.7,57 247.5,75 251.4,66 	"/>
	<line class="st24" x1="186" y1="66" x2="204.6" y2="66"/>
	<rect x="186" y="54" class="st0" width="84" height="24"/>
</g>
<g>
	<line class="st24" x1="202.8" y1="204" x2="221.4" y2="204"/>
	<polyline class="st28" points="156,204 159.9,195 167.7,213 175.5,195 183.3,213 191.1,195 198.9,213 202.8,204 	"/>
	<line class="st24" x1="126" y1="204" x2="156" y2="204"/>
	<rect x="126" y="192" class="st0" width="95.4" height="24"/>
</g>
<g>
	<line class="st24" x1="276" y1="114.6" x2="276" y2="96"/>
	<polyline class="st28" points="276,161.4 267,157.5 285,149.7 267,141.9 285,134.1 267,126.3 285,118.5 276,114.6 	"/>
	<line class="st24" x1="276" y1="180" x2="276" y2="161.4"/>
	<rect x="264" y="96" class="st0" width="24" height="84"/>
</g>
<line class="st26" x1="174" y1="66" x2="186" y2="66"/>
<polyline class="st26" points="270,66 276,66 276,96 "/>
<polyline class="st26" points="276,180 276,204 221.4,204 "/>
<g>
	<polyline class="st24" points="84,216 91.5,216 91.5,216 91.5,216 84,228 76.5,216 84,216 84,204 	"/>
	<rect x="72" y="204" class="st0" width="24" height="24"/>
</g>
<text transform="matrix(1 0 0 1 165.833 246)" class="st1 st4 st3">v</text>
<text transform="matrix(0.583 0 0 0.583 176.873 253.9922)" class="st1 st2 st3">R4</text>
<g>
	<text transform="matrix(1 0 0 1 20.664 114)" class="st1 st2 st3">+</text>
	<text transform="matrix(0.583 0 0 0.583 29.9999 150.792)" class="st1 st4 st3">   </text>
	<text transform="matrix(1 0 0 1 22.8481 171.5996)" class="st1 st5 st3">−</text>
	<text transform="matrix(1 0 0 1 17.6869 138)" class="st1 st4 st3">v</text>
	<text transform="matrix(0.583 0 0 0.583 28.7265 145.9922)" class="st1 st4 st3">ab</text>
</g>
<g>
	<text transform="matrix(1 0 0 1 316.8482 114)" class="st1 st5 st3">−</text>
	<text transform="matrix(0.583 0 0 0.583 324 150.792)" class="st1 st4 st3">   </text>
	<text transform="matrix(1 0 0 1 314.6641 171.5996)" class="st1 st2 st3">+</text>
	<text transform="matrix(1 0 0 1 309.833 138)" class="st1 st4 st3">v</text>
	<text transform="matrix(0.583 0 0 0.583 320.8731 145.9922)" class="st1 st2 st3">R3</text>
</g>
<text transform="matrix(1 0 0 1 90.5159 24)" class="st1 st5 st3">−</text>
<text transform="matrix(1 0 0 1 104.8196 24)" class="st1 st4 st3">      </text>
<text transform="matrix(0.583 0 0 0.583 140.8196 31.9922)" class="st1 st4 st3">    </text>
<text transform="matrix(1 0 0 1 154.8118 24)" class="st1 st2 st3">+</text>
<text transform="matrix(1 0 0 1 117.8328 24)" class="st1 st4 st3">v</text>
<text transform="matrix(0.583 0 0 0.583 128.8728 31.9922)" class="st1 st2 st3">R1</text>
<text transform="matrix(1 0 0 1 185.2651 24)" class="st1 st5 st3">−</text>
<text transform="matrix(1 0 0 1 199.5688 24)" class="st1 st4 st3">       </text>
<text transform="matrix(0.583 0 0 0.583 241.5688 31.9922)" class="st1 st4 st3">   </text>
<text transform="matrix(1 0 0 1 252.063 24)" class="st1 st2 st3">+</text>
<text transform="matrix(1 0 0 1 213.833 24)" class="st1 st4 st3">v</text>
<text transform="matrix(0.583 0 0 0.583 224.873 31.9922)" class="st1 st2 st3">R2</text>
<text transform="matrix(1 0 0 1 120 96)" class="st67 st68 st69">R1</text>
<text transform="matrix(1 0 0 1 216 96)" class="st67 st68 st69">R2</text>
<text transform="matrix(1 0 0 1 234 144)" class="st67 st68 st69">R3</text>
<text transform="matrix(1 0 0 1 168 186)" class="st67 st68 st69">R4</text>
<text transform="matrix(1 0 0 1 108 144)" class="st67 st68 st69">V</text>
<text transform="matrix(0.583 0 0 0.583 121.6548 149.9941)" class="st67 st68">in</text>
<text transform="matrix(1 0 0 1 66 204)" class="st56 st2 st68 st69">a</text>
<text transform="matrix(1 0 0 1 66 78)" class="st56 st2 st68 st69">b</text>
<text transform="matrix(1 0 0 1 174 60)" class="st56 st2 st68 st69">c</text>
<text transform="matrix(1 0 0 1 282 78)" class="st56 st2 st68 st69">d</text>
<text transform="matrix(1 0 0 1 282 204)" class="st56 st2 st68 st69">e</text>
</svg>
